<svg width="256" height="60" fill="none" xmlns="http://www.w3.org/2000/svg"><path d="M30.069 10.018V0L0 30l30.069 30v-9.963L10.041 30 30.07 10.018zm8.331 0V0l30.07 30L38.4 60v-9.963L58.428 30 38.4 10.018z" fill="#1F8BEE"/><path d="M30.124 25.927h-8.22v8.202h8.22v-8.202z" fill="#1F8BEE"/><path d="M88.883 24.824h-4.304v-4.79h4.304v-2.036c0-4.679 2.868-7.926 8.772-7.926 1.269 0 2.593.165 3.807.22v5.394a21.384 21.384 0 00-2.648-.165c-1.987 0-2.759.826-2.759 2.973v1.596h4.965v4.789h-4.965v21.358h-7.228V24.824h.056zm17.489-14.806h7.228v36.166h-7.228V10.018zm27.034 39.468c-1.6 4.184-4.138 5.945-9.048 5.945-1.49 0-2.924-.11-4.414-.275v-5.945c1.379.165 2.814.33 4.193.275 1.876-.22 2.814-1.651 2.814-3.302 0-.55-.11-1.101-.331-1.597l-9.214-24.55h7.724l5.959 17.945h.11l5.738-17.945h7.449l-10.98 29.45zm32.277-6.66h-.11c-1.656 2.862-4.58 4.073-7.945 4.073-7.945 0-11.752-6.715-11.752-14.037 0-7.046 3.917-13.596 11.641-13.596 3.09 0 6.125 1.321 7.78 3.908h.11V10.018h7.228v36.166h-6.842v-3.358h-.11zm-6.29-18.11c-4.745 0-6.345 4.128-6.345 8.367 0 4.128 1.876 8.422 6.345 8.422 4.745 0 6.18-4.129 6.18-8.477 0-4.239-1.545-8.312-6.18-8.312zM184 34.844c.221 4.624 2.372 6.66 6.455 6.66 2.869 0 5.242-1.76 5.683-3.412h6.345c-2.042 6.22-6.345 8.807-12.304 8.807-8.276 0-13.407-5.67-13.407-13.761 0-7.872 5.407-13.817 13.407-13.817 8.938 0 13.297 7.486 12.745 15.523H184zm11.752-4.569c-.662-3.633-2.207-5.56-5.738-5.56-4.69 0-5.848 3.523-6.014 5.56h11.752zm25.875 15.909h-8l-8.993-26.202h7.558l5.518 17.89h.11l5.517-17.89h7.173l-8.883 26.202zm16.883-8.478c0 3.083 2.759 4.404 5.518 4.404 2.041 0 4.744-.825 4.744-3.358 0-2.202-3.034-2.972-8.165-4.073-4.193-.936-8.331-2.312-8.331-6.99 0-6.661 5.793-8.423 11.421-8.423 5.682 0 11.034 1.927 11.586 8.367h-6.842c-.22-2.807-2.317-3.523-4.91-3.523-1.6 0-4.028.275-4.028 2.422 0 2.587 4.138 2.918 8.166 3.908 4.193.936 8.331 2.477 8.331 7.321 0 6.881-6.014 9.138-11.972 9.138-6.069 0-12.083-2.257-12.359-9.193h6.841z" fill="#fff"/></svg>